EncodeNew-Light Condensed.ufo
<glyph name="ampersand" format="1">
  <advance width="624"/>
  <unicode hex="0026"/>
  <outline>
    <contour>
      <point x="624" y="15" type="line"/>
      <point x="301" y="324" type="line" smooth="yes"/>
      <point x="202" y="418"/>
      <point x="176" y="473"/>
      <point x="176" y="550" type="curve" smooth="yes"/>
      <point x="176" y="660"/>
      <point x="234" y="716"/>
      <point x="352" y="716" type="curve" smooth="yes"/>
      <point x="380" y="716"/>
      <point x="407" y="714"/>
      <point x="444" y="704" type="curve"/>
      <point x="444" y="738" type="line"/>
      <point x="415" y="745"/>
      <point x="384" y="749"/>
      <point x="354" y="749" type="curve" smooth="yes"/>
      <point x="213" y="749"/>
      <point x="140" y="679"/>
      <point x="140" y="549" type="curve" smooth="yes"/>
      <point x="140" y="462"/>
      <point x="173" y="400"/>
      <point x="278" y="299" type="curve" smooth="yes"/>
      <point x="601" y="-10" type="line"/>
    </contour>
    <contour>
      <point x="430" y="-9"/>
      <point x="520" y="74"/>
      <point x="520" y="243" type="curve" smooth="yes"/>
      <point x="520" y="285"/>
      <point x="515" y="335"/>
      <point x="503" y="380" type="curve"/>
      <point x="468" y="380" type="line"/>
      <point x="481" y="335"/>
      <point x="487" y="285"/>
      <point x="487" y="242" type="curve" smooth="yes"/>
      <point x="487" y="87"/>
      <point x="411" y="24"/>
      <point x="291" y="24" type="curve" smooth="yes"/>
      <point x="174" y="24"/>
      <point x="106" y="94"/>
      <point x="106" y="205" type="curve" smooth="yes"/>
      <point x="106" y="284"/>
      <point x="141" y="344"/>
      <point x="208" y="381" type="curve"/>
      <point x="191" y="409" type="line"/>
      <point x="113" y="366"/>
      <point x="70" y="294"/>
      <point x="70" y="202" type="curve" smooth="yes"/>
      <point x="70" y="74"/>
      <point x="155" y="-9"/>
      <point x="290" y="-9" type="curve" smooth="yes"/>
    </contour>
  </outline>
</glyph>
<glyph name="zero" format="1">
  <advance width="500"/>
  <unicode hex="0030"/>
  <note>
    600
  </note>
  <outline>
    <contour>
      <point x="369" y="-9"/>
      <point x="445" y="87"/>
      <point x="445" y="370" type="curve" smooth="yes"/>
      <point x="445" y="653"/>
      <point x="370" y="749"/>
      <point x="250" y="749" type="curve" smooth="yes"/>
      <point x="130" y="749"/>
      <point x="55" y="653"/>
      <point x="55" y="370" type="curve" smooth="yes"/>
      <point x="55" y="87"/>
      <point x="131" y="-9"/>
      <point x="250" y="-9" type="curve" smooth="yes"/>
    </contour>
    <contour>
      <point x="154" y="24"/>
      <point x="91" y="103"/>
      <point x="91" y="372" type="curve" smooth="yes"/>
      <point x="91" y="637"/>
      <point x="154" y="716"/>
      <point x="250" y="716" type="curve" smooth="yes"/>
      <point x="346" y="716"/>
      <point x="409" y="637"/>
      <point x="409" y="368" type="curve" smooth="yes"/>
      <point x="409" y="103"/>
      <point x="346" y="24"/>
      <point x="250" y="24" type="curve" smooth="yes"/>
    </contour>
  </outline>
</glyph>
<glyph name="one" format="1">
  <advance width="500"/>
  <unicode hex="0031"/>
  <outline>
    <contour>
      <point x="297" y="0" type="line"/>
      <point x="297" y="742" type="line"/>
      <point x="278" y="742" type="line"/>
      <point x="98" y="603" type="line"/>
      <point x="98" y="566" type="line"/>
      <point x="278" y="705" type="line"/>
      <point x="263" y="705" type="line"/>
      <point x="263" y="0" type="line"/>
    </contour>
    <contour>
      <point x="447" y="0" type="line"/>
      <point x="447" y="32" type="line"/>
      <point x="108" y="32" type="line"/>
      <point x="108" y="0" type="line"/>
    </contour>
  </outline>
</glyph>
<glyph name="two" format="1">
  <advance width="500"/>
  <unicode hex="0032"/>
  <outline>
    <contour>
      <point x="415" y="0" type="line"/>
      <point x="415" y="32" type="line"/>
      <point x="97" y="32" type="line"/>
      <point x="106" y="20" type="line"/>
      <point x="293" y="312" type="line" smooth="yes"/>
      <point x="366" y="426"/>
      <point x="394" y="494"/>
      <point x="395" y="569" type="curve" smooth="yes"/>
      <point x="397" y="697"/>
      <point x="320" y="749"/>
      <point x="201" y="749" type="curve" smooth="yes"/>
      <point x="148" y="749"/>
      <point x="95" y="739"/>
      <point x="61" y="722" type="curve"/>
      <point x="61" y="688" type="line"/>
      <point x="104" y="707"/>
      <point x="146" y="716"/>
      <point x="201" y="716" type="curve" smooth="yes"/>
      <point x="301" y="716"/>
      <point x="360" y="679"/>
      <point x="360" y="569" type="curve" smooth="yes"/>
      <point x="360" y="500"/>
      <point x="331" y="433"/>
      <point x="267" y="332" type="curve" smooth="yes"/>
      <point x="69" y="20" type="line"/>
      <point x="69" y="0" type="line"/>
    </contour>
  </outline>
</glyph>
<glyph name="three" format="1">
  <advance width="500"/>
  <unicode hex="0033"/>
  <outline>
    <contour>
      <point x="350" y="-9"/>
      <point x="437" y="62"/>
      <point x="437" y="191" type="curve" smooth="yes"/>
      <point x="437" y="301"/>
      <point x="370" y="372"/>
      <point x="243" y="390" type="curve"/>
      <point x="242" y="379" type="line"/>
      <point x="352" y="401"/>
      <point x="413" y="474"/>
      <point x="413" y="569" type="curve" smooth="yes"/>
      <point x="413" y="685"/>
      <point x="342" y="749"/>
      <point x="210" y="749" type="curve" smooth="yes"/>
      <point x="160" y="749"/>
      <point x="104" y="739"/>
      <point x="69" y="722" type="curve"/>
      <point x="69" y="688" type="line"/>
      <point x="114" y="707"/>
      <point x="158" y="716"/>
      <point x="211" y="716" type="curve" smooth="yes"/>
      <point x="321" y="716"/>
      <point x="378" y="668"/>
      <point x="378" y="570" type="curve" smooth="yes"/>
      <point x="378" y="465"/>
      <point x="301" y="397"/>
      <point x="158" y="397" type="curve" smooth="yes"/>
      <point x="140" y="397" type="line"/>
      <point x="140" y="364" type="line"/>
      <point x="194" y="364" type="line" smooth="yes"/>
      <point x="337" y="364"/>
      <point x="402" y="296"/>
      <point x="402" y="190" type="curve" smooth="yes"/>
      <point x="402" y="79"/>
      <point x="327" y="24"/>
      <point x="211" y="24" type="curve" smooth="yes"/>
      <point x="161" y="24"/>
      <point x="107" y="33"/>
      <point x="56" y="52" type="curve"/>
      <point x="56" y="18" type="line"/>
      <point x="103" y="0"/>
      <point x="155" y="-9"/>
      <point x="212" y="-9" type="curve" smooth="yes"/>
    </contour>
  </outline>
</glyph>
<glyph name="four" format="1">
  <advance width="500"/>
  <unicode hex="0034"/>
  <outline>
    <contour>
      <point x="477" y="192" type="line"/>
      <point x="477" y="224" type="line"/>
      <point x="55" y="224" type="line"/>
      <point x="62" y="211" type="line"/>
      <point x="325" y="740" type="line"/>
      <point x="288" y="740" type="line"/>
      <point x="26" y="212" type="line"/>
      <point x="26" y="192" type="line"/>
    </contour>
    <contour>
      <point x="377" y="0" type="line"/>
      <point x="377" y="490" type="line"/>
      <point x="350" y="490" type="line"/>
      <point x="343" y="224" type="line"/>
      <point x="343" y="0" type="line"/>
    </contour>
  </outline>
</glyph>
<glyph name="five" format="1">
  <advance width="500"/>
  <unicode hex="0035"/>
  <outline>
    <contour>
      <point x="366" y="-9"/>
      <point x="446" y="64"/>
      <point x="446" y="199" type="curve" smooth="yes"/>
      <point x="446" y="334"/>
      <point x="357" y="402"/>
      <point x="185" y="412" type="curve" smooth="yes"/>
      <point x="99" y="417" type="line"/>
      <point x="124" y="393" type="line"/>
      <point x="147" y="722" type="line"/>
      <point x="132" y="708" type="line"/>
      <point x="413" y="708" type="line"/>
      <point x="413" y="740" type="line"/>
      <point x="114" y="740" type="line"/>
      <point x="91" y="384" type="line"/>
      <point x="177" y="379" type="line" smooth="yes"/>
      <point x="337" y="370"/>
      <point x="411" y="316"/>
      <point x="411" y="198" type="curve" smooth="yes"/>
      <point x="411" y="83"/>
      <point x="345" y="24"/>
      <point x="222" y="24" type="curve" smooth="yes"/>
      <point x="169" y="24"/>
      <point x="114" y="34"/>
      <point x="65" y="52" type="curve"/>
      <point x="65" y="18" type="line"/>
      <point x="110" y="0"/>
      <point x="164" y="-9"/>
      <point x="222" y="-9" type="curve" smooth="yes"/>
    </contour>
  </outline>
</glyph>
<glyph name="six" format="1">
  <advance width="500"/>
  <unicode hex="0036"/>
  <outline>
    <contour>
      <point x="381" y="-9"/>
      <point x="463" y="58"/>
      <point x="463" y="204" type="curve" smooth="yes"/>
      <point x="463" y="347"/>
      <point x="376" y="414"/>
      <point x="269" y="414" type="curve" smooth="yes"/>
      <point x="195" y="414"/>
      <point x="128" y="383"/>
      <point x="95" y="332" type="curve"/>
      <point x="95" y="286" type="line"/>
      <point x="131" y="355"/>
      <point x="203" y="381"/>
      <point x="267" y="381" type="curve" smooth="yes"/>
      <point x="356" y="381"/>
      <point x="428" y="331"/>
      <point x="428" y="202" type="curve" smooth="yes"/>
      <point x="428" y="74"/>
      <point x="361" y="24"/>
      <point x="283" y="24" type="curve" smooth="yes"/>
      <point x="185" y="24"/>
      <point x="109" y="90"/>
      <point x="109" y="346" type="curve" smooth="yes"/>
      <point x="109" y="352" type="line" smooth="yes"/>
      <point x="109" y="624"/>
      <point x="187" y="716"/>
      <point x="326" y="716" type="curve" smooth="yes"/>
      <point x="365" y="716"/>
      <point x="402" y="709"/>
      <point x="433" y="695" type="curve"/>
      <point x="433" y="729" type="line"/>
      <point x="402" y="743"/>
      <point x="364" y="749"/>
      <point x="328" y="749" type="curve" smooth="yes"/>
      <point x="165" y="749"/>
      <point x="74" y="641"/>
      <point x="74" y="345" type="curve" smooth="yes"/>
      <point x="74" y="71"/>
      <point x="165" y="-9"/>
      <point x="282" y="-9" type="curve" smooth="yes"/>
    </contour>
  </outline>
</glyph>
<glyph name="seven" format="1">
  <advance width="500"/>
  <unicode hex="0037"/>
  <outline>
    <contour>
      <point x="157" y="0" type="line"/>
      <point x="439" y="720" type="line"/>
      <point x="439" y="740" type="line"/>
      <point x="39" y="740" type="line"/>
      <point x="39" y="708" type="line"/>
      <point x="407" y="708" type="line"/>
      <point x="405" y="721" type="line"/>
      <point x="122" y="0" type="line"/>
    </contour>
  </outline>
</glyph>
<glyph name="eight" format="1">
  <advance width="500"/>
  <unicode hex="0038"/>
  <outline>
    <contour>
      <point x="378" y="-9"/>
      <point x="454" y="66"/>
      <point x="454" y="179" type="curve" smooth="yes"/>
      <point x="454" y="286"/>
      <point x="403" y="342"/>
      <point x="261" y="389" type="curve" smooth="yes"/>
      <point x="138" y="430"/>
      <point x="103" y="478"/>
      <point x="103" y="567" type="curve" smooth="yes"/>
      <point x="103" y="659"/>
      <point x="154" y="716"/>
      <point x="248" y="716" type="curve" smooth="yes"/>
      <point x="343" y="716"/>
      <point x="399" y="662"/>
      <point x="399" y="564" type="curve" smooth="yes"/>
      <point x="399" y="474"/>
      <point x="362" y="424"/>
      <point x="273" y="381" type="curve"/>
      <point x="306" y="367" type="line"/>
      <point x="386" y="406"/>
      <point x="433" y="474"/>
      <point x="433" y="564" type="curve" smooth="yes"/>
      <point x="433" y="677"/>
      <point x="362" y="749"/>
      <point x="248" y="749" type="curve" smooth="yes"/>
      <point x="138" y="749"/>
      <point x="67" y="677"/>
      <point x="67" y="566" type="curve" smooth="yes"/>
      <point x="67" y="460"/>
      <point x="119" y="400"/>
      <point x="256" y="355" type="curve" smooth="yes"/>
      <point x="380" y="314"/>
      <point x="418" y="272"/>
      <point x="418" y="176" type="curve" smooth="yes"/>
      <point x="418" y="80"/>
      <point x="358" y="24"/>
      <point x="256" y="24" type="curve" smooth="yes"/>
      <point x="138" y="24"/>
      <point x="82" y="82"/>
      <point x="82" y="183" type="curve" smooth="yes"/>
      <point x="82" y="278"/>
      <point x="134" y="346"/>
      <point x="219" y="374" type="curve"/>
      <point x="187" y="390" type="line"/>
      <point x="101" y="358"/>
      <point x="46" y="279"/>
      <point x="46" y="183" type="curve" smooth="yes"/>
      <point x="46" y="62"/>
      <point x="122" y="-9"/>
      <point x="256" y="-9" type="curve" smooth="yes"/>
    </contour>
  </outline>
</glyph>
<glyph name="nine" format="1">
  <advance width="500"/>
  <unicode hex="0039"/>
  <outline>
    <contour>
      <point x="119" y="749"/>
      <point x="37" y="682"/>
      <point x="37" y="536" type="curve" smooth="yes"/>
      <point x="37" y="393"/>
      <point x="124" y="326"/>
      <point x="231" y="326" type="curve" smooth="yes"/>
      <point x="305" y="326"/>
      <point x="372" y="357"/>
      <point x="405" y="408" type="curve"/>
      <point x="405" y="454" type="line"/>
      <point x="369" y="385"/>
      <point x="297" y="359"/>
      <point x="233" y="359" type="curve" smooth="yes"/>
      <point x="144" y="359"/>
      <point x="72" y="409"/>
      <point x="72" y="538" type="curve" smooth="yes"/>
      <point x="72" y="666"/>
      <point x="139" y="716"/>
      <point x="217" y="716" type="curve" smooth="yes"/>
      <point x="315" y="716"/>
      <point x="391" y="650"/>
      <point x="391" y="394" type="curve" smooth="yes"/>
      <point x="391" y="388" type="line" smooth="yes"/>
      <point x="391" y="116"/>
      <point x="313" y="24"/>
      <point x="174" y="24" type="curve" smooth="yes"/>
      <point x="135" y="24"/>
      <point x="98" y="31"/>
      <point x="67" y="45" type="curve"/>
      <point x="67" y="11" type="line"/>
      <point x="98" y="-3"/>
      <point x="136" y="-9"/>
      <point x="172" y="-9" type="curve" smooth="yes"/>
      <point x="335" y="-9"/>
      <point x="426" y="99"/>
      <point x="426" y="395" type="curve" smooth="yes"/>
      <point x="426" y="669"/>
      <point x="335" y="749"/>
      <point x="218" y="749" type="curve" smooth="yes"/>
    </contour>
  </outline>
</glyph>
<glyph name="A" format="1">
  <advance width="565"/>
  <unicode hex="0041"/>
  <note>
    520
  </note>
  <outline>
    <contour>
      <point x="49" y="0" type="line"/>
      <point x="288" y="720" type="line"/>
      <point x="276" y="720" type="line"/>
      <point x="515" y="0" type="line"/>
      <point x="552" y="0" type="line"/>
      <point x="304" y="740" type="line"/>
      <point x="261" y="740" type="line"/>
      <point x="13" y="0" type="line"/>
    </contour>
    <contour>
      <point x="442" y="264" type="line"/>
      <point x="432" y="297" type="line"/>
      <point x="133" y="297" type="line"/>
      <point x="123" y="264" type="line"/>
    </contour>
    <contour>
      <point x="552" y="0" type="move" name="ogonek"/>
    </contour>
    <contour>
      <point x="283" y="0" type="move" name="bottom"/>
    </contour>
    <contour>
      <point x="283" y="760" type="move" name="top"/>
    </contour>
  </outline>
</glyph>
<glyph name="B" format="1">
  <advance width="542"/>
  <unicode hex="0042"/>
  <outline>
    <contour>
      <point x="425" y="-5"/>
      <point x="507" y="63"/>
      <point x="507" y="195" type="curve" smooth="yes"/>
      <point x="507" y="298"/>
      <point x="453" y="372"/>
      <point x="332" y="386" type="curve"/>
      <point x="332" y="379" type="line"/>
      <point x="450" y="396"/>
      <point x="486" y="475"/>
      <point x="486" y="557" type="curve" smooth="yes"/>
      <point x="486" y="687"/>
      <point x="412" y="747"/>
      <point x="238" y="747" type="curve" smooth="yes"/>
      <point x="174" y="747"/>
      <point x="125" y="741"/>
      <point x="82" y="733" type="curve"/>
      <point x="82" y="2" type="line"/>
      <point x="129" y="-3"/>
      <point x="175" y="-5"/>
      <point x="224" y="-5" type="curve" smooth="yes"/>
    </contour>
    <contour>
      <point x="189" y="28"/>
      <point x="151" y="29"/>
      <point x="116" y="33" type="curve"/>
      <point x="116" y="705" type="line"/>
      <point x="151" y="711"/>
      <point x="187" y="714"/>
      <point x="236" y="714" type="curve" smooth="yes"/>
      <point x="393" y="714"/>
      <point x="451" y="669"/>
      <point x="451" y="557" type="curve" smooth="yes"/>
      <point x="451" y="456"/>
      <point x="403" y="397"/>
      <point x="243" y="397" type="curve" smooth="yes"/>
      <point x="108" y="397" type="line"/>
      <point x="108" y="364" type="line"/>
      <point x="263" y="364" type="line" smooth="yes"/>
      <point x="408" y="364"/>
      <point x="472" y="306"/>
      <point x="472" y="193" type="curve" smooth="yes"/>
      <point x="472" y="80"/>
      <point x="405" y="28"/>
      <point x="225" y="28" type="curve" smooth="yes"/>
    </contour>
    <contour>
      <point x="282" y="740" type="move" name="top"/>
    </contour>
    <contour>
      <point x="282" y="0" type="move" name="bottom"/>
    </contour>
  </outline>
</glyph>
<glyph name="C" format="1">
  <advance width="462"/>
  <unicode hex="0043"/>
  <outline>
    <contour>
      <point x="370" y="-9"/>
      <point x="417" y="2"/>
      <point x="456" y="16" type="curve"/>
      <point x="456" y="50" type="line"/>
      <point x="405" y="32"/>
      <point x="364" y="24"/>
      <point x="316" y="24" type="curve" smooth="yes"/>
      <point x="173" y="24"/>
      <point x="85" y="100"/>
      <point x="85" y="371" type="curve" smooth="yes"/>
      <point x="85" y="635"/>
      <point x="169" y="716"/>
      <point x="320" y="716" type="curve" smooth="yes"/>
      <point x="365" y="716"/>
      <point x="406" y="712"/>
      <point x="456" y="695" type="curve"/>
      <point x="456" y="729" type="line"/>
      <point x="413" y="742"/>
      <point x="367" y="749"/>
      <point x="324" y="749" type="curve" smooth="yes"/>
      <point x="150" y="749"/>
      <point x="49" y="652"/>
      <point x="49" y="369" type="curve" smooth="yes"/>
      <point x="49" y="82"/>
      <point x="153" y="-9"/>
      <point x="317" y="-9" type="curve" smooth="yes"/>
    </contour>
    <contour>
      <point x="294" y="760" type="move" name="top"/>
    </contour>
    <contour>
      <point x="299" y="0" type="move" name="bottom"/>
    </contour>
  </outline>
</glyph>
<glyph name="D" format="1">
  <advance width="578"/>
  <unicode hex="0044"/>
  <outline>
    <contour>
      <point x="417" y="-5"/>
      <point x="529" y="103"/>
      <point x="529" y="370" type="curve" smooth="yes"/>
      <point x="529" y="629"/>
      <point x="426" y="747"/>
      <point x="221" y="747" type="curve" smooth="yes"/>
      <point x="174" y="747"/>
      <point x="125" y="741"/>
      <point x="82" y="734" type="curve"/>
      <point x="82" y="2" type="line"/>
      <point x="134" y="-3"/>
      <point x="169" y="-5"/>
      <point x="207" y="-5" type="curve" smooth="yes"/>
    </contour>
    <contour>
      <point x="177" y="28"/>
      <point x="149" y="29"/>
      <point x="116" y="33" type="curve"/>
      <point x="116" y="706" type="line"/>
      <point x="151" y="711"/>
      <point x="187" y="714"/>
      <point x="219" y="714" type="curve" smooth="yes"/>
      <point x="408" y="714"/>
      <point x="493" y="612"/>
      <point x="493" y="370" type="curve" smooth="yes"/>
      <point x="493" y="123"/>
      <point x="399" y="28"/>
      <point x="208" y="28" type="curve" smooth="yes"/>
    </contour>
    <contour>
      <point x="289" y="370" type="move" name="center"/>
    </contour>
    <contour>
      <point x="82" y="381" type="move" name="stroke"/>
    </contour>
    <contour>
      <point x="258" y="760" type="move" name="top"/>
    </contour>
    <contour>
      <point x="258" y="0" type="move" name="bottom"/>
    </contour>
  </outline>
</glyph>
<glyph name="E" format="1">
  <advance width="473"/>
  <unicode hex="0045"/>
  <outline>
    <contour>
      <point x="456" y="0" type="line"/>
      <point x="456" y="33" type="line"/>
      <point x="116" y="33" type="line"/>
      <point x="116" y="707" type="line"/>
      <point x="451" y="707" type="line"/>
      <point x="451" y="740" type="line"/>
      <point x="82" y="740" type="line"/>
      <point x="82" y="0" type="line"/>
    </contour>
    <contour>
      <point x="406" y="364" type="line"/>
      <point x="406" y="397" type="line"/>
      <point x="112" y="397" type="line"/>
      <point x="112" y="364" type="line"/>
    </contour>
    <contour>
      <point x="416" y="0" type="move" name="ogonek"/>
    </contour>
    <contour>
      <point x="278" y="760" type="move" name="top"/>
    </contour>
    <contour>
      <point x="18" y="740" type="move" name="topleft"/>
    </contour>
    <contour>
      <point x="278" y="0" type="move" name="bottom"/>
    </contour>
  </outline>
</glyph>
<glyph name="F" format="1">
  <advance width="455"/>
  <unicode hex="0046"/>
  <outline>
    <contour>
      <point x="116" y="0" type="line"/>
      <point x="116" y="707" type="line"/>
      <point x="446" y="707" type="line"/>
      <point x="446" y="740" type="line"/>
      <point x="82" y="740" type="line"/>
      <point x="82" y="0" type="line"/>
    </contour>
    <contour>
      <point x="401" y="364" type="line"/>
      <point x="401" y="397" type="line"/>
      <point x="112" y="397" type="line"/>
      <point x="112" y="364" type="line"/>
    </contour>
  </outline>
</glyph>
<glyph name="G" format="1">
  <advance width="553"/>
  <unicode hex="0047"/>
  <outline>
    <contour>
      <point x="405" y="-5"/>
      <point x="440" y="-2"/>
      <point x="489" y="7" type="curve"/>
      <point x="489" y="360" type="line"/>
      <point x="455" y="360" type="line"/>
      <point x="455" y="20" type="line"/>
      <point x="466" y="38" type="line"/>
      <point x="434" y="31"/>
      <point x="401" y="28"/>
      <point x="366" y="28" type="curve" smooth="yes"/>
      <point x="178" y="28"/>
      <point x="85" y="109"/>
      <point x="85" y="369" type="curve" smooth="yes"/>
      <point x="85" y="636"/>
      <point x="180" y="716"/>
      <point x="339" y="716" type="curve" smooth="yes"/>
      <point x="385" y="716"/>
      <point x="430" y="711"/>
      <point x="480" y="695" type="curve"/>
      <point x="480" y="729" type="line"/>
      <point x="437" y="742"/>
      <point x="387" y="749"/>
      <point x="342" y="749" type="curve" smooth="yes"/>
      <point x="161" y="749"/>
      <point x="49" y="654"/>
      <point x="49" y="369" type="curve" smooth="yes"/>
      <point x="49" y="90"/>
      <point x="159" y="-5"/>
      <point x="366" y="-5" type="curve" smooth="yes"/>
    </contour>
    <contour>
      <point x="309" y="760" type="move" name="top"/>
    </contour>
    <contour>
      <point x="309" y="0" type="move" name="bottom"/>
    </contour>
  </outline>
</glyph>
<glyph name="H" format="1">
  <advance width="610"/>
  <unicode hex="0048"/>
  <outline>
    <contour>
      <point x="116" y="0" type="line"/>
      <point x="116" y="364" type="line"/>
      <point x="494" y="364" type="line"/>
      <point x="494" y="0" type="line"/>
      <point x="528" y="0" type="line"/>
      <point x="528" y="740" type="line"/>
      <point x="494" y="740" type="line"/>
      <point x="494" y="397" type="line"/>
      <point x="116" y="397" type="line"/>
      <point x="116" y="740" type="line"/>
      <point x="82" y="740" type="line"/>
      <point x="82" y="0" type="line"/>
    </contour>
    <contour>
      <point x="305" y="570" type="move" name="center"/>
    </contour>
    <contour>
      <point x="305" y="760" type="move" name="top"/>
    </contour>
    <contour>
      <point x="18" y="740" type="move" name="topleft"/>
    </contour>
    <contour>
      <point x="305" y="0" type="move" name="bottom"/>
    </contour>
  </outline>
</glyph>
<glyph name="I" format="1">
  <advance width="198"/>
  <unicode hex="0049"/>
  <outline>
    <contour>
      <point x="116" y="0" type="line"/>
      <point x="116" y="740" type="line"/>
      <point x="82" y="740" type="line"/>
      <point x="82" y="0" type="line"/>
    </contour>
    <contour>
      <point x="116" y="0" type="move" name="ogonek"/>
    </contour>
    <contour>
      <point x="99" y="0" type="move" name="bottom"/>
    </contour>
    <contour>
      <point x="99" y="760" type="move" name="top"/>
    </contour>
  </outline>
</glyph>
<glyph name="J" format="1">
  <advance width="198"/>
  <unicode hex="004A"/>
  <outline>
    <contour>
      <point x="87" y="-68"/>
      <point x="112" y="11"/>
      <point x="116" y="128" type="curve"/>
      <point x="116" y="740" type="line"/>
      <point x="82" y="740" type="line"/>
      <point x="82" y="143" type="line" smooth="yes"/>
      <point x="82" y="18"/>
      <point x="57" y="-58"/>
      <point x="-3" y="-153" type="curve"/>
      <point x="22" y="-170" type="line"/>
    </contour>
    <contour>
      <point x="99" y="760" type="move" name="top"/>
    </contour>
    <contour>
      <point x="136" y="0" type="move" name="bottom"/>
    </contour>
  </outline>
</glyph>
<glyph name="K" format="1">
  <advance width="520"/>
  <unicode hex="004B"/>
  <outline>
    <contour>
      <point x="539" y="0" type="line"/>
      <point x="236" y="387" type="line"/>
      <point x="236" y="375" type="line"/>
      <point x="518" y="740" type="line"/>
      <point x="478" y="740" type="line"/>
      <point x="201" y="379" type="line"/>
      <point x="498" y="0" type="line"/>
    </contour>
    <contour>
      <point x="116" y="0" type="line"/>
      <point x="116" y="740" type="line"/>
      <point x="82" y="740" type="line"/>
      <point x="82" y="0" type="line"/>
    </contour>
    <contour>
      <point x="222" y="364" type="line"/>
      <point x="222" y="396" type="line"/>
      <point x="108" y="396" type="line"/>
      <point x="108" y="364" type="line"/>
    </contour>
    <contour>
      <point x="278" y="740" type="move" name="top"/>
    </contour>
    <contour>
      <point x="278" y="0" type="move" name="bottom"/>
    </contour>
  </outline>
</glyph>
<glyph name="L" format="1">
  <advance width="445"/>
  <unicode hex="004C"/>
  <outline>
    <contour>
      <point x="443" y="0" type="line"/>
      <point x="443" y="33" type="line"/>
      <point x="116" y="33" type="line"/>
      <point x="116" y="740" type="line"/>
      <point x="82" y="740" type="line"/>
      <point x="82" y="0" type="line"/>
    </contour>
    <contour>
      <point x="320" y="387" type="move" name="periodcentered"/>
    </contour>
    <contour>
      <point x="99" y="760" type="move" name="top"/>
    </contour>
    <contour>
      <point x="99" y="387" type="move" name="slash"/>
    </contour>
    <contour>
      <point x="289" y="740" type="move" name="caronalt"/>
    </contour>
    <contour>
      <point x="263" y="0" type="move" name="bottom"/>
    </contour>
  </outline>
</glyph>
<glyph name="M" format="1">
  <advance width="758"/>
  <unicode hex="004D"/>
  <outline>
    <contour>
      <point x="117" y="0" type="line"/>
      <point x="117" y="710" type="line"/>
      <point x="99" y="710" type="line"/>
      <point x="360" y="100" type="line"/>
      <point x="398" y="100" type="line"/>
      <point x="658" y="710" type="line"/>
      <point x="641" y="710" type="line"/>
      <point x="641" y="0" type="line"/>
      <point x="674" y="0" type="line"/>
      <point x="674" y="740" type="line"/>
      <point x="636" y="740" type="line"/>
      <point x="372" y="116" type="line"/>
      <point x="388" y="116" type="line"/>
      <point x="122" y="740" type="line"/>
      <point x="84" y="740" type="line"/>
      <point x="84" y="0" type="line"/>
    </contour>
    <contour>
      <point x="379" y="740" type="move" name="top"/>
    </contour>
    <contour>
      <point x="379" y="0" type="move" name="bottom"/>
    </contour>
  </outline>
</glyph>
<glyph name="N" format="1">
  <advance width="624"/>
  <unicode hex="004E"/>
  <outline>
    <contour>
      <point x="115" y="0" type="line"/>
      <point x="115" y="710" type="line"/>
      <point x="99" y="710" type="line"/>
      <point x="504" y="0" type="line"/>
      <point x="542" y="0" type="line"/>
      <point x="542" y="740" type="line"/>
      <point x="509" y="740" type="line"/>
      <point x="509" y="30" type="line"/>
      <point x="525" y="30" type="line"/>
      <point x="120" y="740" type="line"/>
      <point x="82" y="740" type="line"/>
      <point x="82" y="0" type="line"/>
    </contour>
    <contour>
      <point x="312" y="760" type="move" name="top"/>
    </contour>
    <contour>
      <point x="312" y="0" type="move" name="bottom"/>
    </contour>
  </outline>
</glyph>
<glyph name="O" format="1">
  <advance width="582"/>
  <unicode hex="004F"/>
  <outline>
    <contour>
      <point x="439" y="-9"/>
      <point x="533" y="91"/>
      <point x="533" y="370" type="curve" smooth="yes"/>
      <point x="533" y="649"/>
      <point x="439" y="749"/>
      <point x="291" y="749" type="curve" smooth="yes"/>
      <point x="143" y="749"/>
      <point x="49" y="649"/>
      <point x="49" y="370" type="curve" smooth="yes"/>
      <point x="49" y="91"/>
      <point x="143" y="-9"/>
      <point x="291" y="-9" type="curve" smooth="yes"/>
    </contour>
    <contour>
      <point x="167" y="24"/>
      <point x="85" y="103"/>
      <point x="85" y="372" type="curve" smooth="yes"/>
      <point x="85" y="637"/>
      <point x="167" y="716"/>
      <point x="291" y="716" type="curve" smooth="yes"/>
      <point x="415" y="716"/>
      <point x="497" y="637"/>
      <point x="497" y="368" type="curve" smooth="yes"/>
      <point x="497" y="103"/>
      <point x="415" y="24"/>
      <point x="291" y="24" type="curve" smooth="yes"/>
    </contour>
    <contour>
      <point x="291" y="370" type="move" name="center"/>
    </contour>
    <contour>
      <point x="361" y="0" type="move" name="ogonek"/>
    </contour>
    <contour>
      <point x="291" y="760" type="move" name="top"/>
    </contour>
    <contour>
      <point x="361" y="740" type="move" name="topright"/>
    </contour>
    <contour>
      <point x="19" y="740" type="move" name="topleft"/>
    </contour>
    <contour>
      <point x="291" y="0" type="move" name="bottom"/>
    </contour>
  </outline>
</glyph>
<glyph name="P" format="1">
  <advance width="527"/>
  <unicode hex="0050"/>
  <outline>
    <contour>
      <point x="116" y="0" type="line"/>
      <point x="116" y="263" type="line"/>
      <point x="145" y="260"/>
      <point x="173" y="259"/>
      <point x="204" y="259" type="curve" smooth="yes"/>
      <point x="395" y="259"/>
      <point x="481" y="343"/>
      <point x="481" y="502" type="curve" smooth="yes"/>
      <point x="481" y="670"/>
      <point x="395" y="747"/>
      <point x="225" y="747" type="curve" smooth="yes"/>
      <point x="174" y="747"/>
      <point x="125" y="741"/>
      <point x="82" y="734" type="curve"/>
      <point x="82" y="0" type="line"/>
    </contour>
    <contour>
      <point x="176" y="292"/>
      <point x="146" y="293"/>
      <point x="116" y="297" type="curve"/>
      <point x="116" y="706" type="line"/>
      <point x="151" y="711"/>
      <point x="187" y="714"/>
      <point x="225" y="714" type="curve" smooth="yes"/>
      <point x="375" y="714"/>
      <point x="445" y="650"/>
      <point x="445" y="500" type="curve" smooth="yes"/>
      <point x="445" y="359"/>
      <point x="370" y="292"/>
      <point x="207" y="292" type="curve" smooth="yes"/>
    </contour>
  </outline>
</glyph>
<glyph name="Q" format="1">
  <advance width="582"/>
  <unicode hex="0051"/>
  <outline>
    <contour>
      <point x="522" y="-57" type="line"/>
      <point x="429" y="-48"/>
      <point x="323" y="-29"/>
      <point x="246" y="11" type="curve"/>
      <point x="256" y="-4" type="line"/>
      <point x="442" y="-30"/>
      <point x="533" y="101"/>
      <point x="533" y="370" type="curve" smooth="yes"/>
      <point x="533" y="649"/>
      <point x="439" y="749"/>
      <point x="291" y="749" type="curve" smooth="yes"/>
      <point x="143" y="749"/>
      <point x="49" y="649"/>
      <point x="49" y="370" type="curve" smooth="yes"/>
      <point x="49" y="54"/>
      <point x="157" y="-45"/>
      <point x="516" y="-90" type="curve"/>
    </contour>
    <contour>
      <point x="167" y="24"/>
      <point x="85" y="103"/>
      <point x="85" y="372" type="curve" smooth="yes"/>
      <point x="85" y="637"/>
      <point x="167" y="716"/>
      <point x="291" y="716" type="curve" smooth="yes"/>
      <point x="415" y="716"/>
      <point x="497" y="637"/>
      <point x="497" y="368" type="curve" smooth="yes"/>
      <point x="497" y="103"/>
      <point x="415" y="24"/>
      <point x="291" y="24" type="curve" smooth="yes"/>
    </contour>
  </outline>
</glyph>
<glyph name="R" format="1">
  <advance width="561"/>
  <unicode hex="0052"/>
  <outline>
    <contour>
      <point x="116" y="0" type="line"/>
      <point x="116" y="329" type="line"/>
      <point x="140" y="327"/>
      <point x="164" y="326"/>
      <point x="203" y="326" type="curve" smooth="yes"/>
      <point x="387" y="326"/>
      <point x="482" y="398"/>
      <point x="480" y="540" type="curve" smooth="yes"/>
      <point x="480" y="677"/>
      <point x="400" y="747"/>
      <point x="234" y="747" type="curve" smooth="yes"/>
      <point x="174" y="747"/>
      <point x="127" y="741"/>
      <point x="82" y="734" type="curve"/>
      <point x="82" y="0" type="line"/>
    </contour>
    <contour>
      <point x="540" y="0" type="line"/>
      <point x="289" y="349" type="line"/>
      <point x="250" y="349" type="line"/>
      <point x="500" y="0" type="line"/>
    </contour>
    <contour>
      <point x="171" y="358"/>
      <point x="150" y="359"/>
      <point x="116" y="361" type="curve"/>
      <point x="116" y="705" type="line"/>
      <point x="154" y="711"/>
      <point x="187" y="714"/>
      <point x="231" y="714" type="curve" smooth="yes"/>
      <point x="385" y="714"/>
      <point x="446" y="657"/>
      <point x="446" y="539" type="curve" smooth="yes"/>
      <point x="446" y="416"/>
      <point x="373" y="358"/>
      <point x="200" y="358" type="curve" smooth="yes"/>
    </contour>
    <contour>
      <point x="263" y="760" type="move" name="top"/>
    </contour>
    <contour>
      <point x="298" y="0" type="move" name="bottom"/>
    </contour>
  </outline>
</glyph>
<glyph name="T" format="1">
  <advance width="490"/>
  <unicode hex="0054"/>
  <outline>
    <contour>
      <point x="262" y="0" type="line"/>
      <point x="262" y="707" type="line"/>
      <point x="486" y="707" type="line"/>
      <point x="486" y="740" type="line"/>
      <point x="4" y="740" type="line"/>
      <point x="4" y="707" type="line"/>
      <point x="228" y="707" type="line"/>
      <point x="228" y="0" type="line"/>
    </contour>
    <contour>
      <point x="245" y="400" type="move" name="center"/>
    </contour>
    <contour>
      <point x="245" y="0" type="move" name="bottom"/>
    </contour>
    <contour>
      <point x="245" y="760" type="move" name="top"/>
    </contour>
  </outline>
</glyph>
<glyph name="U" format="1">
  <advance width="599"/>
  <unicode hex="0055"/>
  <outline>
    <contour>
      <point x="456" y="-9"/>
      <point x="521" y="73"/>
      <point x="521" y="246" type="curve" smooth="yes"/>
      <point x="521" y="740" type="line"/>
      <point x="488" y="740" type="line"/>
      <point x="488" y="241" type="line" smooth="yes"/>
      <point x="488" y="95"/>
      <point x="435" y="24"/>
      <point x="300" y="24" type="curve" smooth="yes"/>
      <point x="165" y="24"/>
      <point x="112" y="95"/>
      <point x="112" y="241" type="curve" smooth="yes"/>
      <point x="112" y="740" type="line"/>
      <point x="78" y="740" type="line"/>
      <point x="78" y="246" type="line" smooth="yes"/>
      <point x="78" y="73"/>
      <point x="144" y="-9"/>
      <point x="300" y="-9" type="curve" smooth="yes"/>
    </contour>
    <contour>
      <point x="359" y="0" type="move" name="ogonek"/>
    </contour>
    <contour>
      <point x="300" y="760" type="move" name="top"/>
    </contour>
    <contour>
      <point x="488" y="740" type="move" name="topright"/>
    </contour>
    <contour>
      <point x="300" y="0" type="move" name="bottom"/>
    </contour>
  </outline>
</glyph>
<glyph name="V" format="1">
  <advance width="549"/>
  <unicode hex="0056"/>
  <outline>
    <contour>
      <point x="298" y="0" type="line"/>
      <point x="544" y="740" type="line"/>
      <point x="509" y="740" type="line"/>
      <point x="271" y="20" type="line"/>
      <point x="279" y="20" type="line"/>
      <point x="42" y="740" type="line"/>
      <point x="5" y="740" type="line"/>
      <point x="251" y="0" type="line"/>
    </contour>
  </outline>
</glyph>
<glyph name="W" format="1">
  <advance width="888"/>
  <unicode hex="0057"/>
  <outline>
    <contour>
      <point x="265" y="0" type="line"/>
      <point x="448" y="715" type="line"/>
      <point x="441" y="715" type="line"/>
      <point x="623" y="0" type="line"/>
      <point x="670" y="0" type="line"/>
      <point x="859" y="740" type="line"/>
      <point x="825" y="740" type="line"/>
      <point x="643" y="20" type="line"/>
      <point x="651" y="20" type="line"/>
      <point x="468" y="740" type="line"/>
      <point x="421" y="740" type="line"/>
      <point x="238" y="20" type="line"/>
      <point x="246" y="20" type="line"/>
      <point x="65" y="740" type="line"/>
      <point x="29" y="740" type="line"/>
      <point x="218" y="0" type="line"/>
    </contour>
    <contour>
      <point x="445" y="760" type="move" name="top"/>
    </contour>
    <contour>
      <point x="445" y="0" type="move" name="bottom"/>
    </contour>
  </outline>
</glyph>
<glyph name="X" format="1">
  <advance width="538"/>
  <unicode hex="0058"/>
  <outline>
    <contour>
      <point x="522" y="0" type="line"/>
      <point x="289" y="374" type="line"/>
      <point x="269" y="405" type="line"/>
      <point x="61" y="740" type="line"/>
      <point x="21" y="740" type="line"/>
      <point x="249" y="374" type="line"/>
      <point x="269" y="342" type="line"/>
      <point x="481" y="0" type="line"/>
    </contour>
    <contour>
      <point x="56" y="0" type="line"/>
      <point x="269" y="342" type="line"/>
      <point x="289" y="374" type="line"/>
      <point x="517" y="740" type="line"/>
      <point x="477" y="740" type="line"/>
      <point x="269" y="405" type="line"/>
      <point x="249" y="374" type="line"/>
      <point x="16" y="0" type="line"/>
    </contour>
  </outline>
</glyph>
<glyph name="Y" format="1">
  <advance width="490"/>
  <unicode hex="0059"/>
  <outline>
    <contour>
      <point x="262" y="0" type="line"/>
      <point x="262" y="354" type="line"/>
      <point x="254" y="326" type="line"/>
      <point x="497" y="740" type="line"/>
      <point x="459" y="740" type="line"/>
      <point x="238" y="362" type="line"/>
      <point x="252" y="362" type="line"/>
      <point x="28" y="740" type="line"/>
      <point x="-11" y="740" type="line"/>
      <point x="236" y="326" type="line"/>
      <point x="228" y="354" type="line"/>
      <point x="228" y="0" type="line"/>
    </contour>
    <contour>
      <point x="245" y="760" type="move" name="top"/>
    </contour>
    <contour>
      <point x="245" y="0" type="move" name="bottom"/>
    </contour>
    <contour>
      <point x="6" y="740" type="move" name="topleft"/>
    </contour>
  </outline>
</glyph>
<glyph name="Z" format="1">
  <advance width="475"/>
  <unicode hex="005A"/>
  <outline>
    <contour>
      <point x="446" y="0" type="line"/>
      <point x="446" y="32" type="line"/>
      <point x="56" y="32" type="line"/>
      <point x="64" y="19" type="line"/>
      <point x="441" y="720" type="line"/>
      <point x="441" y="740" type="line"/>
      <point x="32" y="740" type="line"/>
      <point x="32" y="708" type="line"/>
      <point x="412" y="708" type="line"/>
      <point x="404" y="721" type="line"/>
      <point x="27" y="20" type="line"/>
      <point x="27" y="0" type="line"/>
    </contour>
    <contour>
      <point x="237" y="760" type="move" name="top"/>
    </contour>
    <contour>
      <point x="237" y="0" type="move" name="bottom"/>
    </contour>
  </outline>
</glyph>
<glyph name="a" format="1">
  <advance width="426"/>
  <unicode hex="0061"/>
  <outline>
    <contour>
      <point x="240" y="-8"/>
      <point x="289" y="15"/>
      <point x="322" y="61" type="curve"/>
      <point x="326" y="61" type="line"/>
      <point x="329" y="0" type="line"/>
      <point x="359" y="0" type="line"/>
      <point x="359" y="377" type="line" smooth="yes"/>
      <point x="359" y="506"/>
      <point x="300" y="548"/>
      <point x="195" y="548" type="curve" smooth="yes"/>
      <point x="155" y="548"/>
      <point x="104" y="540"/>
      <point x="68" y="526" type="curve"/>
      <point x="68" y="492" type="line"/>
      <point x="113" y="508"/>
      <point x="159" y="515"/>
      <point x="194" y="515" type="curve" smooth="yes"/>
      <point x="278" y="515"/>
      <point x="325" y="486"/>
      <point x="325" y="378" type="curve" smooth="yes"/>
      <point x="325" y="111" type="line"/>
      <point x="286" y="45"/>
      <point x="232" y="25"/>
      <point x="186" y="25" type="curve" smooth="yes"/>
      <point x="117" y="25"/>
      <point x="78" y="60"/>
      <point x="78" y="137" type="curve" smooth="yes"/>
      <point x="78" y="207"/>
      <point x="117" y="246"/>
      <point x="204" y="255" type="curve" smooth="yes"/>
      <point x="348" y="271" type="line"/>
      <point x="343" y="304" type="line"/>
      <point x="205" y="288" type="line" smooth="yes"/>
      <point x="94" y="276"/>
      <point x="41" y="225"/>
      <point x="41" y="133" type="curve" smooth="yes"/>
      <point x="41" y="41"/>
      <point x="99" y="-8"/>
      <point x="183" y="-8" type="curve" smooth="yes"/>
    </contour>
    <contour>
      <point x="359" y="0" type="move" name="ogonek"/>
    </contour>
    <contour>
      <point x="212" y="0" type="move" name="bottom"/>
    </contour>
    <contour>
      <point x="210" y="600" type="move" name="top"/>
    </contour>
  </outline>
</glyph>
<glyph name="o" format="1">
  <advance width="456"/>
  <unicode hex="006F"/>
  <outline>
    <contour>
      <point x="340" y="-9"/>
      <point x="412" y="66"/>
      <point x="412" y="270" type="curve" smooth="yes"/>
      <point x="412" y="474"/>
      <point x="338" y="548"/>
      <point x="228" y="548" type="curve" smooth="yes"/>
      <point x="116" y="548"/>
      <point x="44" y="474"/>
      <point x="44" y="270" type="curve" smooth="yes"/>
      <point x="44" y="66"/>
      <point x="118" y="-9"/>
      <point x="228" y="-9" type="curve" smooth="yes"/>
    </contour>
    <contour>
      <point x="138" y="24"/>
      <point x="80" y="80"/>
      <point x="80" y="272" type="curve" smooth="yes"/>
      <point x="80" y="460"/>
      <point x="138" y="515"/>
      <point x="228" y="515" type="curve" smooth="yes"/>
      <point x="318" y="515"/>
      <point x="376" y="460"/>
      <point x="376" y="268" type="curve" smooth="yes"/>
      <point x="376" y="80"/>
      <point x="318" y="24"/>
      <point x="228" y="24" type="curve" smooth="yes"/>
    </contour>
    <contour>
      <point x="228" y="270" type="move" name="center"/>
    </contour>
    <contour>
      <point x="289" y="0" type="move" name="ogonek"/>
    </contour>
    <contour>
      <point x="228" y="600" type="move" name="top"/>
    </contour>
    <contour>
      <point x="285" y="540" type="move" name="topright"/>
    </contour>
    <contour>
      <point x="228" y="0" type="move" name="bottom"/>
    </contour>
  </outline>
</glyph>
<glyph name="AE" format="1">
  <advance width="773"/>
  <unicode hex="00C6"/>
  <outline>
    <contour>
      <point x="49" y="0" type="line"/>
      <point x="290" y="707" type="line"/>
      <point x="399" y="707" type="line"/>
      <point x="399" y="740" type="line"/>
      <point x="267" y="740" type="line"/>
      <point x="13" y="0" type="line"/>
    </contour>
    <contour>
      <point x="412" y="264" type="line"/>
      <point x="412" y="297" type="line"/>
      <point x="134" y="297" type="line"/>
      <point x="124" y="264" type="line"/>
    </contour>
    <contour>
      <point x="756" y="0" type="line"/>
      <point x="756" y="33" type="line"/>
      <point x="442" y="33" type="line"/>
      <point x="412" y="707" type="line"/>
      <point x="751" y="707" type="line"/>
      <point x="751" y="740" type="line"/>
      <point x="377" y="740" type="line"/>
      <point x="409" y="0" type="line"/>
    </contour>
    <contour>
      <point x="706" y="364" type="line"/>
      <point x="706" y="397" type="line"/>
      <point x="418" y="397" type="line"/>
      <point x="418" y="364" type="line"/>
    </contour>
    <contour>
      <point x="395" y="760" type="move" name="top"/>
    </contour>
    <contour>
      <point x="426" y="0" type="move" name="bottom"/>
    </contour>
  </outline>
</glyph>
<glyph name="Oslash" format="1">
  <advance width="582"/>
  <unicode hex="00D8"/>
  <outline>
    <component base="O"/>
    <component base="slashcomb.case" xOffset="-9"/>
    <contour>
      <point x="292" y="760" type="move" name="top"/>
    </contour>
    <contour>
      <point x="292" y="0" type="move" name="bottom"/>
    </contour>
  </outline>
</glyph>
<glyph name="Thorn" format="1">
  <advance width="532"/>
  <unicode hex="00DE"/>
  <outline>
    <contour>
      <point x="116" y="0" type="line"/>
      <point x="116" y="140" type="line"/>
      <point x="145" y="137"/>
      <point x="173" y="136"/>
      <point x="204" y="136" type="curve" smooth="yes"/>
      <point x="395" y="136"/>
      <point x="481" y="220"/>
      <point x="481" y="379" type="curve" smooth="yes"/>
      <point x="481" y="547"/>
      <point x="395" y="624"/>
      <point x="225" y="624" type="curve" smooth="yes"/>
      <point x="184" y="624"/>
      <point x="142" y="620"/>
      <point x="116" y="616" type="curve"/>
      <point x="116" y="740" type="line"/>
      <point x="82" y="740" type="line"/>
      <point x="82" y="0" type="line"/>
    </contour>
    <contour>
      <point x="176" y="169"/>
      <point x="146" y="170"/>
      <point x="116" y="174" type="curve"/>
      <point x="116" y="583" type="line"/>
      <point x="151" y="588"/>
      <point x="187" y="591"/>
      <point x="225" y="591" type="curve" smooth="yes"/>
      <point x="375" y="591"/>
      <point x="445" y="527"/>
      <point x="445" y="377" type="curve" smooth="yes"/>
      <point x="445" y="236"/>
      <point x="370" y="169"/>
      <point x="207" y="169" type="curve" smooth="yes"/>
    </contour>
  </outline>
</glyph>
<glyph name="OE" format="1">
  <advance width="829"/>
  <unicode hex="0152"/>
  <outline>
    <contour>
      <point x="416" y="-5"/>
      <point x="443" y="0"/>
      <point x="473" y="0" type="curve" smooth="yes"/>
      <point x="812" y="0" type="line"/>
      <point x="812" y="33" type="line"/>
      <point x="484" y="33" type="line"/>
      <point x="484" y="707" type="line"/>
      <point x="807" y="707" type="line"/>
      <point x="807" y="740" type="line"/>
      <point x="470" y="740" type="line" smooth="yes"/>
      <point x="441" y="740"/>
      <point x="405" y="747"/>
      <point x="350" y="747" type="curve" smooth="yes"/>
      <point x="152" y="747"/>
      <point x="49" y="629"/>
      <point x="49" y="370" type="curve" smooth="yes"/>
      <point x="49" y="103"/>
      <point x="161" y="-5"/>
      <point x="364" y="-5" type="curve" smooth="yes"/>
    </contour>
    <contour>
      <point x="179" y="28"/>
      <point x="85" y="123"/>
      <point x="85" y="370" type="curve" smooth="yes"/>
      <point x="85" y="612"/>
      <point x="170" y="714"/>
      <point x="352" y="714" type="curve" smooth="yes"/>
      <point x="384" y="714"/>
      <point x="417" y="712"/>
      <point x="450" y="707" type="curve"/>
      <point x="450" y="33" type="line"/>
      <point x="422" y="29"/>
      <point x="394" y="28"/>
      <point x="363" y="28" type="curve" smooth="yes"/>
    </contour>
    <contour>
      <point x="762" y="364" type="line"/>
      <point x="762" y="397" type="line"/>
      <point x="480" y="397" type="line"/>
      <point x="480" y="364" type="line"/>
    </contour>
    <contour>
      <point x="467" y="760" type="move" name="top"/>
    </contour>
    <contour>
      <point x="467" y="0" type="move" name="bottom"/>
    </contour>
  </outline>
</glyph>
<glyph name="Schwa" format="1">
  <advance width="583"/>
  <unicode hex="018F"/>
  <outline>
    <contour>
      <point x="438" y="-9"/>
      <point x="534" y="91"/>
      <point x="534" y="370" type="curve" smooth="yes"/>
      <point x="534" y="651"/>
      <point x="430" y="749"/>
      <point x="242" y="749" type="curve" smooth="yes"/>
      <point x="185" y="749"/>
      <point x="133" y="743"/>
      <point x="78" y="729" type="curve"/>
      <point x="78" y="695" type="line"/>
      <point x="132" y="711"/>
      <point x="190" y="716"/>
      <point x="239" y="716" type="curve" smooth="yes"/>
      <point x="416" y="716"/>
      <point x="498" y="639"/>
      <point x="498" y="369" type="curve" smooth="yes"/>
      <point x="498" y="103"/>
      <point x="416" y="24"/>
      <point x="286" y="24" type="curve" smooth="yes"/>
      <point x="156" y="24"/>
      <point x="80" y="103"/>
      <point x="80" y="370" type="curve"/>
      <point x="68" y="357" type="line"/>
      <point x="512" y="357" type="line"/>
      <point x="512" y="390" type="line"/>
      <point x="44" y="390" type="line"/>
      <point x="44" y="370" type="line" smooth="yes"/>
      <point x="44" y="93"/>
      <point x="134" y="-9"/>
      <point x="286" y="-9" type="curve" smooth="yes"/>
    </contour>
    <contour>
      <point x="292" y="760" type="move" name="top"/>
    </contour>
    <contour>
      <point x="292" y="0" type="move" name="bottom"/>
    </contour>
  </outline>
</glyph>
<glyph name="Ohorn" format="1">
  <advance width="582"/>
  <unicode hex="01A0"/>
  <outline>
    <contour>
      <point x="437" y="-9"/>
      <point x="533" y="91"/>
      <point x="533" y="370" type="curve" smooth="yes"/>
      <point x="533" y="554"/>
      <point x="492" y="661"/>
      <point x="421" y="711" type="curve"/>
      <point x="416" y="705" type="line"/>
      <point x="483" y="705"/>
      <point x="533" y="745"/>
      <point x="533" y="816" type="curve" smooth="yes"/>
      <point x="533" y="846"/>
      <point x="529" y="865"/>
      <point x="521" y="888" type="curve"/>
      <point x="488" y="888" type="line"/>
      <point x="495" y="865"/>
      <point x="500" y="845"/>
      <point x="500" y="817" type="curve" smooth="yes"/>
      <point x="500" y="762"/>
      <point x="461" y="738"/>
      <point x="411" y="738" type="curve" smooth="yes"/>
      <point x="372" y="738"/>
      <point x="345" y="749"/>
      <point x="291" y="749" type="curve" smooth="yes"/>
      <point x="143" y="749"/>
      <point x="49" y="649"/>
      <point x="49" y="370" type="curve" smooth="yes"/>
      <point x="49" y="91"/>
      <point x="145" y="-9"/>
      <point x="291" y="-9" type="curve" smooth="yes"/>
    </contour>
    <contour>
      <point x="167" y="24"/>
      <point x="85" y="103"/>
      <point x="85" y="372" type="curve" smooth="yes"/>
      <point x="85" y="637"/>
      <point x="167" y="716"/>
      <point x="291" y="716" type="curve" smooth="yes"/>
      <point x="415" y="716"/>
      <point x="497" y="637"/>
      <point x="497" y="368" type="curve" smooth="yes"/>
      <point x="497" y="103"/>
      <point x="415" y="24"/>
      <point x="291" y="24" type="curve" smooth="yes"/>
    </contour>
    <contour>
      <point x="291" y="760" type="move" name="top"/>
    </contour>
    <contour>
      <point x="291" y="0" type="move" name="bottom"/>
    </contour>
  </outline>
</glyph>
<glyph name="Uhorn" format="1">
  <advance width="599"/>
  <unicode hex="01AF"/>
  <outline>
    <contour>
      <point x="626" y="846"/>
      <point x="622" y="865"/>
      <point x="614" y="888" type="curve"/>
      <point x="581" y="888" type="line"/>
      <point x="588" y="865"/>
      <point x="593" y="845"/>
      <point x="593" y="817" type="curve" smooth="yes"/>
      <point x="593" y="762"/>
      <point x="554" y="740"/>
      <point x="504" y="740" type="curve" smooth="yes"/>
      <point x="488" y="740" type="line"/>
      <point x="488" y="241" type="line" smooth="yes"/>
      <point x="488" y="95"/>
      <point x="435" y="24"/>
      <point x="300" y="24" type="curve" smooth="yes"/>
      <point x="165" y="24"/>
      <point x="112" y="95"/>
      <point x="112" y="241" type="curve" smooth="yes"/>
      <point x="112" y="740" type="line"/>
      <point x="78" y="740" type="line"/>
      <point x="78" y="246" type="line" smooth="yes"/>
      <point x="78" y="73"/>
      <point x="144" y="-9"/>
      <point x="300" y="-9" type="curve" smooth="yes"/>
      <point x="456" y="-9"/>
      <point x="521" y="73"/>
      <point x="521" y="246" type="curve" smooth="yes"/>
      <point x="521" y="709" type="line"/>
      <point x="581" y="712"/>
      <point x="626" y="748"/>
      <point x="626" y="816" type="curve" smooth="yes"/>
    </contour>
    <contour>
      <point x="300" y="760" type="move" name="top"/>
    </contour>
    <contour>
      <point x="300" y="0" type="move" name="bottom"/>
    </contour>
  </outline>
</glyph>
<glyph name="slashshortcomb" format="1">
  <advance width="400"/>
  <unicode hex="0337"/>
  <outline>
    <contour>
      <point x="286" y="453" type="line"/>
      <point x="266" y="473" type="line"/>
      <point x="114" y="321" type="line"/>
      <point x="134" y="301" type="line"/>
    </contour>
    <contour>
      <point x="200" y="387" type="move" name="_slash"/>
    </contour>
  </outline>
</glyph>
<glyph name="Germandbls" format="1">
  <advance width="699"/>
  <unicode hex="1E9E"/>
  <outline>
    <contour>
      <point x="587" y="-9"/>
      <point x="665" y="61"/>
      <point x="665" y="188" type="curve" smooth="yes"/>
      <point x="665" y="291"/>
      <point x="614" y="352"/>
      <point x="493" y="391" type="curve" smooth="yes"/>
      <point x="378" y="428"/>
      <point x="336" y="466"/>
      <point x="336" y="562" type="curve" smooth="yes"/>
      <point x="336" y="661"/>
      <point x="394" y="716"/>
      <point x="513" y="716" type="curve" smooth="yes"/>
      <point x="555" y="716"/>
      <point x="595" y="711"/>
      <point x="638" y="697" type="curve"/>
      <point x="638" y="731" type="line"/>
      <point x="604" y="743"/>
      <point x="554" y="749"/>
      <point x="515" y="749" type="curve" smooth="yes"/>
      <point x="375" y="749"/>
      <point x="300" y="678"/>
      <point x="300" y="560" type="curve" smooth="yes"/>
      <point x="300" y="453"/>
      <point x="354" y="398"/>
      <point x="476" y="359" type="curve" smooth="yes"/>
      <point x="590" y="323"/>
      <point x="629" y="278"/>
      <point x="629" y="186" type="curve" smooth="yes"/>
      <point x="629" y="78"/>
      <point x="567" y="24"/>
      <point x="451" y="24" type="curve" smooth="yes"/>
      <point x="406" y="24"/>
      <point x="359" y="32"/>
      <point x="307" y="50" type="curve"/>
      <point x="307" y="16" type="line"/>
      <point x="354" y="-1"/>
      <point x="406" y="-9"/>
      <point x="448" y="-9" type="curve" smooth="yes"/>
    </contour>
    <contour>
      <point x="116" y="0" type="line"/>
      <point x="116" y="499" type="line" smooth="yes"/>
      <point x="116" y="645"/>
      <point x="169" y="716"/>
      <point x="304" y="716" type="curve" smooth="yes"/>
      <point x="335" y="716"/>
      <point x="362" y="712"/>
      <point x="386" y="704" type="curve"/>
      <point x="419" y="726" type="line"/>
      <point x="388" y="741"/>
      <point x="349" y="749"/>
      <point x="304" y="749" type="curve" smooth="yes"/>
      <point x="148" y="749"/>
      <point x="82" y="667"/>
      <point x="82" y="494" type="curve" smooth="yes"/>
      <point x="82" y="0" type="line"/>
    </contour>
  </outline>
</glyph>
<glyph name="slashcomb" format="1">
  <advance width="600"/>
  <outline>
    <contour>
      <point x="186" y="60" type="line"/>
      <point x="193" y="71" type="line"/>
      <point x="434" y="453" type="line"/>
      <point x="441" y="464" type="line"/>
      <point x="484" y="532" type="line"/>
      <point x="457" y="548" type="line"/>
      <point x="414" y="480" type="line"/>
      <point x="407" y="469" type="line"/>
      <point x="166" y="87" type="line"/>
      <point x="159" y="76" type="line"/>
      <point x="116" y="8" type="line"/>
      <point x="143" y="-8" type="line"/>
    </contour>
    <contour>
      <point x="300" y="270" type="move" name="_center"/>
    </contour>
  </outline>
</glyph>
<glyph name="slashshortcomb.case" format="1">
  <advance width="400"/>
  <outline>
    <contour>
      <point x="355" y="519" type="line"/>
      <point x="335" y="540" type="line"/>
      <point x="99" y="305" type="line"/>
      <point x="119" y="284" type="line"/>
    </contour>
    <contour>
      <point x="200" y="387" type="move" name="_slash"/>
    </contour>
  </outline>
</glyph>
<glyph name="strokelongcomb.case" format="1">
  <advance width="610"/>
  <outline>
    <contour>
      <point x="616" y="525" type="line"/>
      <point x="616" y="555" type="line"/>
      <point x="2" y="555" type="line"/>
      <point x="2" y="525" type="line"/>
    </contour>
    <contour>
      <point x="309" y="540" type="move" name="_center"/>
    </contour>
  </outline>
</glyph>
<glyph name="strokeshortcomb.D" format="1">
  <advance width="600"/>
  <outline>
    <contour>
      <point x="414" y="525" type="line"/>
      <point x="414" y="555" type="line"/>
      <point x="146" y="555" type="line"/>
      <point x="146" y="525" type="line"/>
    </contour>
    <contour>
      <point x="230" y="540" type="move" name="_stroke"/>
    </contour>
  </outline>
</glyph>
<glyph name="strokeshortcomb.case" format="1">
  <advance width="400"/>
  <outline>
    <contour>
      <point x="366" y="525" type="line"/>
      <point x="366" y="555" type="line"/>
      <point x="34" y="555" type="line"/>
      <point x="34" y="525" type="line"/>
    </contour>
    <contour>
      <point x="200" y="540" type="move" name="_center"/>
    </contour>
  </outline>
</glyph>
<glyph name="strokeshortcomb.d" format="1">
  <advance width="600"/>
  <outline>
    <contour>
      <point x="369" y="525" type="line"/>
      <point x="369" y="555" type="line"/>
      <point x="116" y="555" type="line"/>
      <point x="116" y="525" type="line"/>
    </contour>
    <contour>
      <point x="300" y="540" type="move" name="_stroke"/>
    </contour>
  </outline>
</glyph>
